<svg id="gatete-fiestero" width="88" height="96" viewBox="0 0 88 96" fill="none" xmlns="http://www.w3.org/2000/svg">
<path d="M46.4423 24.2004C46.4426 24.2001 46.4429 24.1998 46.4433 24.1995C46.4381 24.2051 46.4349 24.2081 46.4347 24.2082C46.4345 24.2082 46.4368 24.2057 46.4423 24.2004ZM79.8887 75.5268C75.3808 81.7797 65.4658 88.2144 44.1349 88.4955C33.035 88.6418 23.9313 85.162 17.5977 81.6405C14.4315 79.8801 11.9609 78.111 10.2838 76.7839C9.70391 76.325 9.21908 75.9191 8.83337 75.5849C9.88614 75.6973 11.2309 75.7156 12.3604 74.7414L13.05 74.1467L12.178 73.8841C7.27783 72.4082 3.73263 68.6328 2.59081 65.4171C4.11766 64.636 5.4065 63.667 6.41455 62.3146C7.50667 60.8494 8.24247 58.9701 8.62657 56.4699C8.71055 55.9715 8.79377 55.4578 8.87915 54.9307C9.9663 48.2193 11.4036 39.3461 19.2274 32.6361C19.4447 32.4497 19.6588 32.2646 19.8715 32.0808C21.4672 30.7018 22.9805 29.394 25.1308 28.1385C27.564 26.7178 30.8292 25.3568 35.9427 24.0882C41.1879 22.787 43.5634 20.6315 44.7203 18.8379C45.2571 18.0057 45.5178 17.2709 45.6815 16.7967C45.9724 17.1186 46.2491 17.4827 46.4764 17.9516C46.7911 18.6007 47.0256 19.4817 47.0256 20.7657C47.0256 21.9642 46.5616 22.6639 46.2054 23.0521C46.0712 23.1984 45.9749 23.2811 45.8865 23.3571C45.8414 23.3958 45.7985 23.4327 45.7535 23.4755L45.7511 23.4777C45.7333 23.4944 45.6591 23.5639 45.6112 23.6609C45.5852 23.7136 45.5143 23.8791 45.5916 24.0775C45.6732 24.2867 45.85 24.3596 45.9195 24.3813C45.9939 24.4044 46.0586 24.4064 46.0871 24.4067C46.1222 24.4071 46.1544 24.4047 46.1792 24.4023C46.2287 24.3976 46.2844 24.389 46.3392 24.3798C46.5157 24.3502 46.7188 24.27 46.9172 24.1753C47.1255 24.0759 47.3651 23.9426 47.6243 23.7816C48.143 23.4591 48.7586 23.0137 49.3851 22.4747C50.6294 21.4042 51.9648 19.9238 52.6419 18.2587C52.7514 17.9893 52.8428 17.869 52.8905 17.8205C52.8921 17.8217 52.8938 17.823 52.8955 17.8244C52.9861 17.8959 53.1173 18.0603 53.2659 18.349C53.4091 18.6274 53.5488 18.9821 53.6752 19.389C53.9281 20.203 54.1149 21.1845 54.1783 22.095C54.2431 23.0251 54.1731 23.802 53.9762 24.2548C53.9112 24.4042 53.7919 24.732 54.0127 25.036C54.1057 25.1639 54.2272 25.2372 54.3187 25.2812C54.4121 25.326 54.5147 25.3592 54.611 25.3864C54.754 25.4269 54.9058 25.4624 55.0809 25.5034C55.4298 25.585 55.871 25.6883 56.5182 25.895C58.3779 26.4888 61.6204 27.8648 66.8376 31.5307C77.1363 38.7673 78.7994 50.6213 79.0338 56.4106C79.1558 59.4266 80.0603 61.3481 81.4124 62.7165C82.6297 63.9484 84.1854 64.6995 85.6901 65.4172C84.546 68.6316 81.0021 72.4032 76.1049 73.8782L75.233 74.1408L75.9226 74.7356C77.2163 75.8514 78.7924 75.6651 79.8887 75.5268ZM45.3293 16.429C45.3293 16.4287 45.3317 16.4306 45.3365 16.4354C45.3318 16.4316 45.3294 16.4293 45.3293 16.429Z" fill="white" stroke="#1B274B"/>
<path d="M11.7099 25.1767C8.74861 22.0557 2.9676 18.3673 3.53161 18.0835C4.09563 17.7998 7.05713 16.5231 15.658 21.0626C24.2589 25.6022 25.387 27.5883 25.387 27.5883C25.387 27.5883 22.9902 29.1488 21.8622 30C20.7341 30.8511 18.4781 32.8372 18.4781 32.8372C18.4781 32.8372 14.6712 28.2976 11.7099 25.1767Z" fill="white" stroke="#1B274B"/>
<path d="M11.851 41.7747C9.736 46.7399 8.60797 55.2516 8.60797 55.2516C8.60797 55.2516 2.5445 50.1446 1.27556 36.9514C0.0066238 23.7582 3.53184 18.2256 3.53184 18.2256C3.53184 18.2256 9.17198 22.6233 10.723 24.1838C12.2741 25.7443 18.4782 32.8374 18.4782 32.8374C18.4782 32.8374 13.9661 36.8095 11.851 41.7747Z" fill="#FDBBC5" stroke="#1B274B"/>
<path d="M76.2901 25.744C79.2514 22.6231 85.0324 18.9346 84.4684 18.6509C83.9044 18.3672 80.9429 17.0904 72.342 21.63C63.7411 26.1696 62.613 28.1557 62.613 28.1557C62.613 28.1557 65.0098 29.7162 66.1378 30.5673C67.2659 31.4185 69.5219 33.4046 69.5219 33.4046C69.5219 33.4046 73.3288 28.865 76.2901 25.744Z" fill="white" stroke="#1B274B"/>
<path d="M76.149 42.3421C78.264 47.3072 79.392 55.819 79.392 55.819C79.392 55.819 85.4555 50.7119 86.7244 37.5188C87.9934 24.3256 84.4682 18.793 84.4682 18.793C84.4682 18.793 78.828 23.1907 77.277 24.7512C75.7259 26.3117 69.5218 33.4048 69.5218 33.4048C69.5218 33.4048 74.0339 37.3769 76.149 42.3421Z" fill="#FDBBC5" stroke="#1B274B"/>
<path d="M26.2339 57.163C24.1188 57.163 22.1448 58.7235 22.1448 58.7235C20.8757 60.0003 18.0557 58.7235 18.0557 58.7235C18.0557 58.7235 19.7477 61.1352 21.5808 60.8514C22.4268 60.4259 22.9209 59.9291 23.9778 59.5747C25.6699 59.0072 27.3619 58.7235 29.9 59.5747C31.733 60.1894 33.143 62.27 33.143 62.27C33.143 62.27 32.015 56.7374 26.2339 57.163Z" fill="#1B274B" stroke="#1B274B"/>
<path d="M62.19 57.163C64.305 57.163 66.2791 58.7235 66.2791 58.7235C67.5481 60.0003 70.3682 58.7235 70.3682 58.7235C70.3682 58.7235 68.6761 61.1352 66.8431 60.8514C65.9971 60.4259 65.5029 59.9291 64.446 59.5747C62.754 59.0072 61.0619 58.7235 58.5239 59.5747C56.6908 60.1894 55.2808 62.27 55.2808 62.27C55.2808 62.27 56.4088 56.7374 62.19 57.163Z" fill="#1B274B" stroke="#1B274B"/>
<path d="M44.0135 64.3751C41.7556 63.8077 42.0376 65.1275 42.0376 65.1275C42.0376 65.1275 42.0376 65.5101 42.8834 66.2194C43.1654 66.4559 44.0135 67.1135 44.0135 67.1135C44.0135 67.1135 44.9777 66.524 45.2805 66.2194C45.9856 65.5101 45.9856 65.1275 45.9856 65.1275C45.9856 65.1275 46.2676 63.8077 44.0135 64.3751Z" fill="#FDBBC5" stroke="#1B274B"/>
<path d="M38.3594 69.3398C39.2054 71.8934 43.4355 71.8934 44.2815 69.7654C45.1275 71.8934 49.0756 71.8934 50.0627 69.3398" stroke="#1B274B" stroke-linecap="round"/>
<ellipse cx="5.64053" cy="2.6952" rx="5.64053" ry="2.6952" transform="matrix(0.994282 0.106791 -0.105516 0.994418 17.9248 63.666)" fill="url(#paint0_radial_99_2797)"/>
<ellipse cx="5.64053" cy="2.6952" rx="5.64053" ry="2.6952" transform="matrix(-0.994282 0.106791 0.105516 0.994418 70.5918 63.666)" fill="url(#paint1_radial_99_2797)"/>
<path d="M37.2691 52.3333C37.2691 50.6831 37.9255 49.1005 39.094 47.9336C40.2625 46.7667 41.8473 46.1111 43.4999 46.1111C45.1524 46.1111 46.7372 46.7667 47.9057 47.9336C49.0742 49.1005 49.7306 50.6831 49.7306 52.3333M80.8845 46.1111C80.8845 64.7778 77.7691 71 65.3075 71C52.846 71 49.7306 64.7778 49.7306 46.1111C49.7306 46.1111 52.846 43 65.3075 43C77.7691 43 80.8845 46.1111 80.8845 46.1111ZM6.11523 46.1111C6.11523 64.7778 9.23062 71 21.6922 71C34.1537 71 37.2691 64.7778 37.2691 46.1111C37.2691 46.1111 34.1537 43 21.6922 43C9.23062 43 6.11523 46.1111 6.11523 46.1111Z" stroke="#1B274B" stroke-linecap="round" stroke-linejoin="round"/>
<path d="M81.5711 87.1114L75.5557 89.9003L70.1339 78.2066L76.1493 75.4177C77.6559 74.7243 79.3758 74.6554 80.933 75.226C82.4903 75.7966 83.7585 76.9604 84.4604 78.4631L84.6165 78.8002C85.3094 80.3069 85.378 82.0266 84.8074 83.5837C84.2369 85.1409 83.0734 86.409 81.5711 87.1114Z" fill="#3B88C3"/>
<path d="M75.3283 89.8675C77.9118 88.6698 78.7928 85.0812 77.2959 81.8522C75.799 78.6232 72.4911 76.9765 69.9075 78.1742C67.3239 79.3718 66.443 82.9604 67.9399 86.1894C69.4368 89.4184 72.7447 91.0652 75.3283 89.8675Z" fill="#88C9F9"/>
<path d="M65.3275 86.1008L47.3192 77.7983C45.3734 76.9771 41.856 75.8332 43.0513 72.7172C44.136 69.8922 47.4465 71.4389 49.8772 72.6321L67.7339 81.8065L65.3275 86.1008Z" fill="#3B88C3"/>
<path d="M71.2119 83.3914L64.1363 79.7149C63.3108 79.2772 62.1136 80.3328 61.6331 81.7015C61.098 83.2229 61.2965 84.1423 62.1235 84.6059L69.181 87.8623L71.2119 83.3914Z" fill="#88C9F9"/>
<path d="M73.8509 87.7992C75.1427 87.2003 75.4619 85.1444 74.5638 83.2072C73.6658 81.27 71.8906 80.185 70.5988 80.7839C69.307 81.3827 68.9878 83.4386 69.8858 85.3758C70.7839 87.313 72.5591 88.398 73.8509 87.7992Z" fill="#226699"/>
<path d="M67.66 26.9069C67.5951 26.7312 67.4725 26.5775 67.3113 26.4698C67.3113 26.4698 32.585 -0.0270013 30.232 0.469725C27.8803 0.969917 11.7832 38.2504 11.7832 38.2504C11.7019 38.4367 11.6657 38.6125 11.7149 38.7762C12.3767 41.0475 25.4374 40.2271 40.8854 36.9511C56.3369 33.6741 68.3218 29.1782 67.66 26.9069Z" fill="#FF6E83"/>
<path d="M29.8545 0.0496452C29.7662 0.114252 29.6879 0.190381 29.6218 0.276028C28.4251 3.52275 19.125 30.5205 17.3624 39.5512C21.7321 39.5483 26.4885 38.9334 32.1651 38.0391C31.7394 30.3039 31.9394 0.776183 29.8545 0.0496452Z" fill="#F4A4B0"/>
<defs>
<radialGradient id="paint0_radial_99_2797" cx="0" cy="0" r="1" gradientUnits="userSpaceOnUse" gradientTransform="translate(5.64053 2.6952) rotate(90) scale(2.6952 5.64053)">
<stop stop-color="#FDBBC5"/>
<stop offset="1" stop-color="#FDBBC5" stop-opacity="0"/>
</radialGradient>
<radialGradient id="paint1_radial_99_2797" cx="0" cy="0" r="1" gradientUnits="userSpaceOnUse" gradientTransform="translate(5.64053 2.6952) rotate(90) scale(2.6952 5.64053)">
<stop stop-color="#FDBBC5"/>
<stop offset="1" stop-color="#FDBBC5" stop-opacity="0"/>
</radialGradient>
</defs>
</svg>
