<svg width="24" height="18" viewBox="0 0 24 18" fill="none" xmlns="http://www.w3.org/2000/svg">
<path d="M6 18C4.34545 18 2.932 17.4066 1.75964 16.2198C0.586545 15.033 0 13.5824 0 11.8681C0 10.3987 0.427273 9.08948 1.28182 7.94035C2.13636 6.79121 3.25455 6.05651 4.63636 5.73626C5.05455 4.21036 5.832 2.92936 6.96873 1.89325C8.10473 0.857143 9.41818 0.22606 10.9091 0V9.12716L9.16364 7.3752L7.63636 8.95761L12 13.4788L16.3636 8.95761L14.8364 7.3752L13.0909 9.12716V0C14.9636 0.263736 16.5229 1.13482 17.7687 2.61325C19.0138 4.09243 19.6364 5.83046 19.6364 7.82732C20.8909 7.97802 21.932 8.53827 22.7596 9.50807C23.5865 10.4786 24 11.6138 24 12.9137C24 14.3265 23.5229 15.5277 22.5687 16.517C21.6138 17.5057 20.4545 18 19.0909 18H6Z" fill="#1B274B"/>
</svg>
