<svg width="19" height="24" viewBox="0 0 19 24" fill="none" xmlns="http://www.w3.org/2000/svg">
<g clip-path="url(#clip0_304_1263)">
<path d="M18.1911 5.34738L13.1142 0.270462C12.9406 0.0969231 12.7062 0 12.4615 0H1.84615C0.826154 0 0 0.826154 0 1.84615V22.1538C0 23.1738 0.826154 24 1.84615 24H16.6154C17.6354 24 18.4615 23.1738 18.4615 22.1538V6C18.4615 5.75538 18.3646 5.52092 18.1911 5.34738ZM4.61538 12C4.10585 12 3.69231 11.5865 3.69231 11.0769C3.69231 10.5674 4.10585 10.1538 4.61538 10.1538C5.12492 10.1538 5.53846 10.5674 5.53846 11.0769C5.53846 11.5865 5.12492 12 4.61538 12ZM4.61538 15.6923C4.10585 15.6923 3.69231 15.2788 3.69231 14.7692C3.69231 14.2597 4.10585 13.8462 4.61538 13.8462C5.12492 13.8462 5.53846 14.2597 5.53846 14.7692C5.53846 15.2788 5.12492 15.6923 4.61538 15.6923ZM4.61538 19.3846C4.10585 19.3846 3.69231 18.9711 3.69231 18.4615C3.69231 17.952 4.10585 17.5385 4.61538 17.5385C5.12492 17.5385 5.53846 17.952 5.53846 18.4615C5.53846 18.9711 5.12492 19.3846 4.61538 19.3846ZM13.8462 19.3846H8.30769C7.79815 19.3846 7.38462 18.9711 7.38462 18.4615C7.38462 17.952 7.79815 17.5385 8.30769 17.5385H13.8462C14.3557 17.5385 14.7692 17.952 14.7692 18.4615C14.7692 18.9711 14.3557 19.3846 13.8462 19.3846ZM13.8462 15.6923H8.30769C7.79815 15.6923 7.38462 15.2788 7.38462 14.7692C7.38462 14.2597 7.79815 13.8462 8.30769 13.8462H13.8462C14.3557 13.8462 14.7692 14.2597 14.7692 14.7692C14.7692 15.2788 14.3557 15.6923 13.8462 15.6923ZM13.8462 12H8.30769C7.79815 12 7.38462 11.5865 7.38462 11.0769C7.38462 10.5674 7.79815 10.1538 8.30769 10.1538H13.8462C14.3557 10.1538 14.7692 10.5674 14.7692 11.0769C14.7692 11.5865 14.3557 12 13.8462 12ZM12.9231 6.46154C12.4135 6.46154 12 6.048 12 5.53846V1.75754L16.704 6.46154H12.9231Z" fill="#1B274B"/>
</g>
<defs>
<clipPath id="clip0_304_1263">
<rect width="18.4615" height="24" fill="white"/>
</clipPath>
</defs>
</svg>
