<svg width="24" height="24" viewBox="0 0 24 24" fill="none" xmlns="http://www.w3.org/2000/svg">
<path d="M13.6859 2.67503C12.6789 1.47989 11.8116 0.26616 11.6346 0.0139611C11.6303 0.0095486 11.6253 0.00603641 11.6197 0.0036368C11.6141 0.00123719 11.608 0 11.6019 0C11.5958 0 11.5898 0.00123719 11.5842 0.0036368C11.5786 0.00603641 11.5735 0.0095486 11.5693 0.0139611C11.3921 0.26616 10.5249 1.47989 9.51792 2.67503C0.874168 13.7017 10.8793 21.1429 10.8793 21.1429L10.9632 21.1991C11.0377 22.3473 11.2242 24 11.2242 24H11.9702C11.9702 24 12.1566 22.3566 12.2312 21.1991L12.3152 21.1336C12.3245 21.1429 22.3295 13.7017 13.6859 2.67503ZM11.5972 20.975C11.5972 20.975 11.1496 20.592 11.0284 20.3962V20.3774L11.5693 8.37043C11.5693 8.33305 11.6253 8.33305 11.6253 8.37043L12.1659 20.3774V20.3962C12.0447 20.592 11.5972 20.975 11.5972 20.975Z" fill="#1B274B"/>
</svg>
