<svg width="25" height="19" viewBox="0 0 25 19" fill="none" xmlns="http://www.w3.org/2000/svg">
<path d="M11.3193 13.6093C11.2968 13.6498 11.308 13.6318 11.3193 13.6093V13.6093ZM20.6613 10.3468C19.9068 10.3468 19.1628 10.5193 18.4863 10.8531C18.265 10.4068 18.0363 10.0168 17.9988 9.72434C17.9538 9.38309 17.905 9.18059 17.9575 8.77559C18.01 8.37059 18.2463 7.79684 18.2425 7.75559C18.2388 7.71434 18.19 7.50809 17.7063 7.50434C17.2225 7.50059 16.8063 7.59809 16.7575 7.72559C16.6719 7.95854 16.6054 8.19809 16.5588 8.44184C16.4725 8.88059 15.592 10.4481 15.0933 11.2656C14.9283 10.9468 14.7895 10.6656 14.7595 10.4406C14.7145 10.0993 14.6658 9.89684 14.7183 9.49184C14.7708 9.08684 15.007 8.51309 15.0033 8.47184C14.9995 8.43059 14.9508 8.22434 14.4678 8.22059C13.9848 8.21684 13.5678 8.31434 13.519 8.44184C13.4703 8.56934 13.4178 8.86934 13.3203 9.15809C13.2228 9.44684 12.049 12.0568 11.7423 12.7356C11.5848 13.0806 11.4498 13.3581 11.3523 13.5456C11.3373 13.5756 11.326 13.5943 11.3185 13.6093C11.3298 13.5906 11.3373 13.5718 11.3373 13.5793C11.2548 13.7406 11.206 13.8306 11.206 13.8306V13.8343C11.1423 13.9543 11.071 14.0631 11.0373 14.0631C11.0148 14.0631 10.966 13.7481 11.0485 13.3168C11.2248 12.4093 11.641 10.9993 11.6373 10.9506C11.6335 10.9243 11.716 10.6806 11.3635 10.5493C11.0223 10.4256 10.8985 10.6318 10.8685 10.6318C10.8385 10.6318 10.816 10.7068 10.816 10.7068C10.816 10.7068 11.1948 9.11684 10.0885 9.11684C9.39851 9.11684 8.43851 9.87434 7.96676 10.5606C7.67051 10.7218 7.02926 11.0706 6.35426 11.4418L5.57801 11.8693C5.55926 11.8506 5.54426 11.8318 5.52551 11.8131C4.18301 10.3806 1.70501 9.36809 1.81001 7.44434C1.84751 6.74309 2.09126 4.90184 6.57551 2.66684C10.2505 0.836841 13.1883 1.33934 13.6945 2.45684C14.422 4.05059 12.1233 7.01684 8.30726 7.44434C6.85226 7.60559 6.08801 7.04309 5.89676 6.83309C5.69801 6.61184 5.66801 6.60059 5.59301 6.64184C5.46926 6.70934 5.54801 6.90434 5.59301 7.02059C5.70551 7.31684 6.17426 7.84184 6.97301 8.10434C7.67426 8.33309 9.37976 8.46059 11.4415 7.66184C13.7583 6.76934 15.562 4.28309 15.0325 2.20184C14.494 0.0868408 10.987 -0.606909 7.67126 0.570591C5.69501 1.27184 3.55826 2.37434 2.02151 3.81059C0.195257 5.52059 -0.0964933 7.00934 0.0235067 7.63184C0.451007 9.84059 3.49526 11.2806 4.71326 12.3456L4.54451 12.4393C3.93326 12.7431 1.61276 13.9581 1.03151 15.2406C0.375257 16.6956 1.14026 17.7381 1.64201 17.8806C3.20951 18.3156 4.81376 17.5318 5.67626 16.2456C6.53876 14.9593 6.43376 13.2793 6.03626 12.5143C6.03251 12.5031 6.02501 12.4956 6.02126 12.4843C6.47123 12.2178 6.92503 11.9578 7.38251 11.7043C7.23251 12.1093 7.12376 12.5968 7.06751 13.3018C7.00001 14.1268 7.34126 15.1956 7.78376 15.6156C7.97876 15.7993 8.21426 15.8031 8.36126 15.8031C8.87876 15.8031 9.11126 15.3756 9.37001 14.8656C9.68876 14.2431 9.97001 13.5193 9.97001 13.5193C9.97001 13.5193 9.61751 15.4768 10.5813 15.4768C10.9338 15.4768 11.2863 15.0231 11.4438 14.7906V14.7943C11.4438 14.7943 11.4513 14.7793 11.47 14.7493C11.5075 14.6931 11.5263 14.6593 11.5263 14.6593V14.6481C11.6688 14.4043 11.98 13.8456 12.4488 12.9231C13.0563 11.7306 13.6368 10.2418 13.6368 10.2418C13.693 10.5688 13.771 10.8921 13.8693 11.2093C13.9743 11.5656 14.1955 11.9556 14.3718 12.3343C14.2293 12.5293 14.143 12.6418 14.143 12.6418C14.143 12.6448 14.1445 12.6471 14.1468 12.6493C14.0343 12.7993 13.9068 12.9606 13.7755 13.1181C13.2963 13.6881 12.7255 14.3406 12.6505 14.5281C12.5605 14.7493 12.583 14.9143 12.7555 15.0418C12.883 15.1393 13.108 15.1543 13.3443 15.1356C13.7755 15.1056 14.0793 15.0006 14.2255 14.9331C14.4953 14.8364 14.7502 14.7027 14.983 14.5356C15.4518 14.1906 15.7368 13.6956 15.7105 13.0431C15.6955 12.6831 15.5793 12.3231 15.4368 11.9856C15.478 11.9256 15.523 11.8618 15.5643 11.7981C16.0523 11.0699 16.492 10.3106 16.8805 9.52484C16.9368 9.85184 17.014 10.1751 17.113 10.4923C17.203 10.7961 17.3793 11.1298 17.5405 11.4561C16.843 12.0223 16.4118 12.6786 16.2625 13.1098C15.985 13.9086 16.2025 14.2686 16.6113 14.3511C16.795 14.3886 17.0575 14.3023 17.2525 14.2198C17.542 14.1231 17.815 13.9828 18.0618 13.8036C18.5305 13.4586 18.9843 12.9748 18.9535 12.3186C18.9423 12.0223 18.8598 11.7261 18.751 11.4411C19.3398 11.1936 20.1048 11.0586 21.0798 11.1711C23.1678 11.4148 23.5765 12.7198 23.4978 13.2636C23.419 13.8073 22.9803 14.1111 22.834 14.2011C22.6878 14.2911 22.6428 14.3248 22.654 14.3923C22.6728 14.4898 22.7403 14.4861 22.864 14.4636C23.0365 14.4336 23.959 14.0211 24.0003 13.0123C24.0603 11.7373 22.834 10.3348 20.6628 10.3461L20.6613 10.3468ZM4.56701 15.7731C3.87701 16.5268 2.91026 16.8118 2.49401 16.5718C2.04776 16.3123 2.22401 15.2031 3.07451 14.3998C3.59201 13.9123 4.25951 13.4623 4.70201 13.1848C4.80326 13.1248 4.94951 13.0348 5.12951 12.9261C5.14413 12.9167 5.15915 12.908 5.17451 12.8998C5.20826 12.8773 5.24576 12.8586 5.28326 12.8361C5.59376 13.9761 5.29451 14.9818 4.56701 15.7731ZM9.60551 12.3456C9.36551 12.9343 8.86001 14.4343 8.55176 14.3556C8.28926 14.2881 8.12801 13.1443 8.49926 12.0193C8.68676 11.4531 9.08426 10.7781 9.32051 10.5156C9.69926 10.0918 10.1155 9.95684 10.213 10.1256C10.3443 10.3468 9.75551 11.9781 9.60551 12.3456ZM13.768 14.3331C13.6668 14.3856 13.573 14.4193 13.528 14.3931C13.4943 14.3743 13.5693 14.3031 13.5693 14.3031C13.5693 14.3031 14.0905 13.7443 14.2968 13.4893C14.4168 13.3393 14.5555 13.1631 14.7055 12.9681C14.7055 12.9868 14.7093 13.0056 14.7093 13.0281C14.7048 13.6993 14.0605 14.1531 13.768 14.3331ZM16.978 13.6018C16.903 13.5493 16.9143 13.3731 17.1655 12.8256C17.263 12.6118 17.488 12.2518 17.878 11.9068C17.9223 12.0373 17.9463 12.1738 17.9493 12.3118C17.9455 13.1556 17.3418 13.4706 16.978 13.6018Z" fill="#1B274B"/>
</svg>
