<svg width="24" height="24" viewBox="0 0 24 24" fill="none" xmlns="http://www.w3.org/2000/svg">
<path d="M0 5.06487H5.61092V6.71514H0V5.06487ZM0 2H5.61092V3.65028H0V2ZM10.0669 8.10611H0V9.75639H9.6896C10.7505 9.75639 13.2258 9.77992 14.1453 11.2652V10.3458C13.6974 8.88405 12.3773 8.10611 10.0669 8.10611ZM10.0903 11.1709H0V12.8212H9.6896C12.0471 12.8212 13.5324 12.9155 14.1453 13.2456V12.5147C13.6738 11.3595 11.6934 11.1709 10.0903 11.1709ZM10.0669 18.9508H0V17.3005H9.6896C10.7505 17.3005 13.2258 17.277 14.1453 15.7917V16.7111C13.6974 18.1729 12.3773 18.9508 10.0669 18.9508ZM10.0903 15.886H0V14.2358H9.6896C12.0471 14.2358 13.5324 14.1414 14.1453 13.8113V14.5422C13.6738 15.6974 11.6934 15.886 10.0903 15.886ZM16.5972 21.8035H23.9999V20.7897H16.8093C16.1728 20.7897 14.6641 20.7662 14.1218 19.8938V20.4597C14.3811 21.332 15.1827 21.8035 16.5972 21.8035ZM16.5736 19.941H23.9764V18.9273H16.8093C15.3712 18.9273 14.4753 18.8801 14.1217 18.668V19.1159C14.4046 19.8231 15.607 19.941 16.5736 19.941Z" fill="#1B274B"/>
</svg>
