<svg width="24" height="24" viewBox="0 0 24 24" fill="none" xmlns="http://www.w3.org/2000/svg">
<g clip-path="url(#clip0_301_1185)">
<path d="M20.2733 3.7267C18.0791 1.53249 15.1031 0.299805 12 0.299805C8.89694 0.299805 5.92096 1.53249 3.72676 3.7267C1.53256 5.9209 0.299866 8.89688 0.299866 11.9999C0.299866 15.103 1.53256 18.079 3.72676 20.2732C5.92096 22.4674 8.89694 23.7001 12 23.7001C15.1031 23.7001 18.0791 22.4674 20.2733 20.2732C22.4675 18.079 23.7002 15.103 23.7002 11.9999C23.7002 8.89688 22.4675 5.9209 20.2733 3.7267ZM12 16.8228C11.5573 16.3183 10.9821 15.9479 10.3397 15.7537C9.69723 15.5594 9.01319 15.549 8.36513 15.7237L10.0875 11.9999H13.9125L15.6304 15.7237C14.983 15.5499 14.2999 15.5608 13.6583 15.755C13.0167 15.9492 12.4423 16.3191 12 16.8228ZM16.5 20.8166C15.377 21.3883 14.1551 21.7403 12.9 21.8538V19.1999C12.9 18.7226 13.0897 18.2647 13.4272 17.9272C13.7648 17.5896 14.2226 17.3999 14.7 17.3999C15.1774 17.3999 15.6352 17.5896 15.9728 17.9272C16.3104 18.2647 16.5 18.7226 16.5 19.1999V20.8166ZM18.9998 19.0008C18.7748 19.2258 18.5408 19.4362 18.3 19.6353V17.3999C18.3002 17.2697 18.2717 17.1411 18.2168 17.0231L12.8168 5.32307C12.7446 5.16721 12.6294 5.03524 12.4847 4.94275C12.3399 4.85026 12.1718 4.80112 12 4.80112C11.8283 4.80112 11.6601 4.85026 11.5154 4.94275C11.3706 5.03524 11.2554 5.16721 11.1833 5.32307L5.78326 17.0231C5.72827 17.1411 5.69985 17.2697 5.70001 17.3999V19.6353C5.4569 19.435 5.22339 19.2232 5.00026 19.0008C3.61555 17.6163 2.67249 15.8523 2.29036 13.9319C1.90823 12.0114 2.10418 10.0208 2.85344 8.21169C3.60269 6.4026 4.8716 4.85633 6.49968 3.76843C8.12777 2.68053 10.0419 2.09986 12 2.09986C13.9581 2.09986 15.8722 2.68053 17.5003 3.76843C19.1284 4.85633 20.3973 6.4026 21.1466 8.21169C21.8958 10.0208 22.0918 12.0114 21.7097 13.9319C21.3275 15.8523 20.3845 17.6163 18.9998 19.0008Z" fill="#1B274B"/>
</g>
<defs>
<clipPath id="clip0_301_1185">
<rect width="24" height="24" fill="white"/>
</clipPath>
</defs>
</svg>
