<svg width="24" height="24" viewBox="0 0 24 24" fill="none" xmlns="http://www.w3.org/2000/svg">
<g clip-path="url(#clip0_303_1209)">
<path d="M11.998 24C11.677 24 11.357 23.916 11.076 23.753L8.13997 22.016C7.70197 21.771 7.91597 21.684 8.05997 21.633C8.64497 21.43 8.76297 21.383 9.38797 21.029C9.45297 20.992 9.53897 21.006 9.60597 21.046L11.862 22.385C11.9039 22.4073 11.9506 22.4189 11.998 22.4189C12.0454 22.4189 12.0921 22.4073 12.134 22.385L20.929 17.309C20.97 17.2843 21.0039 17.2494 21.0273 17.2077C21.0508 17.166 21.0631 17.1189 21.063 17.071V6.92101C21.0629 6.8723 21.0502 6.82442 21.0262 6.78203C21.0022 6.73963 20.9677 6.70415 20.926 6.67901L12.135 1.60701C12.0936 1.58389 12.0469 1.57176 11.9995 1.57176C11.952 1.57176 11.9054 1.58389 11.864 1.60701L3.07497 6.68001C3.03307 6.70489 2.99828 6.74012 2.97394 6.78233C2.9496 6.82453 2.93652 6.87229 2.93597 6.92101V17.071C2.93617 17.119 2.94915 17.1661 2.97358 17.2074C2.99801 17.2487 3.03301 17.2827 3.07497 17.306L5.48397 18.698C6.79097 19.352 7.59197 18.582 7.59197 17.808V7.78701C7.59197 7.64501 7.70597 7.53401 7.84797 7.53401H8.96297C9.10197 7.53401 9.21797 7.64601 9.21797 7.78701V17.808C9.21797 19.553 8.26797 20.553 6.61397 20.553C6.10597 20.553 5.70497 20.553 4.58797 20.002L2.27997 18.675C1.99943 18.5116 1.76665 18.2775 1.60486 17.9961C1.44308 17.7146 1.35795 17.3957 1.35797 17.071V6.92101C1.35797 6.26201 1.71097 5.64601 2.27997 5.31801L11.075 0.236014C11.3583 0.0810021 11.676 -0.000244141 11.999 -0.000244141C12.3219 -0.000244141 12.6397 0.0810021 12.923 0.236014L21.717 5.31801C22.287 5.64701 22.641 6.26201 22.641 6.92101V17.071C22.6404 17.3958 22.5548 17.7147 22.3927 17.9961C22.2306 18.2775 21.9976 18.5116 21.717 18.675L12.923 23.753C12.643 23.916 12.324 24 11.998 24ZM19.099 13.993C19.099 12.093 17.815 11.587 15.112 11.23C12.381 10.869 12.103 10.682 12.103 10.043C12.103 9.51501 12.338 8.81001 14.361 8.81001C16.168 8.81001 16.834 9.19901 17.108 10.417C17.1205 10.4733 17.1517 10.5236 17.1966 10.5598C17.2415 10.596 17.2973 10.6158 17.355 10.616H18.496C18.5308 10.6157 18.5652 10.6083 18.5972 10.5944C18.6292 10.5805 18.658 10.5603 18.682 10.535C18.7061 10.5088 18.7246 10.4778 18.7361 10.4441C18.7476 10.4103 18.752 10.3745 18.749 10.339C18.572 8.24101 17.178 7.26301 14.361 7.26301C11.853 7.26301 10.357 8.32101 10.357 10.096C10.357 12.021 11.845 12.553 14.252 12.791C17.132 13.073 17.355 13.494 17.355 14.06C17.355 15.043 16.566 15.462 14.713 15.462C12.386 15.462 11.874 14.878 11.702 13.72C11.6924 13.6599 11.6617 13.6051 11.6153 13.5657C11.5689 13.5263 11.5099 13.5047 11.449 13.505H10.312C10.2786 13.5047 10.2456 13.5111 10.2147 13.5237C10.1838 13.5363 10.1558 13.5549 10.1321 13.5785C10.1085 13.602 10.0898 13.63 10.0771 13.6608C10.0643 13.6916 10.0578 13.7247 10.058 13.758C10.058 15.24 10.864 17.006 14.713 17.006C17.501 17.007 19.099 15.91 19.099 13.993Z" fill="#1B274B"/>
</g>
<defs>
<clipPath id="clip0_303_1209">
<rect width="24" height="24" fill="white"/>
</clipPath>
</defs>
</svg>
