<svg width="24px" height="24px" viewBox="0 0 24 24" fill="none" xmlns="http://www.w3.org/2000/svg">
<path d="M17.25 9C17.8797 8.52776 18.3448 7.86939 18.5794 7.11813C18.8141 6.36687 18.8065 5.56082 18.5576 4.81415C18.3087 4.06748 17.8312 3.41804 17.1927 2.95784C16.5542 2.49764 15.7871 2.25 15 2.25H8.25001C7.46295 2.25 6.69584 2.49764 6.05734 2.95784C5.41885 3.41804 4.94133 4.06748 4.69244 4.81415C4.44355 5.56082 4.43591 6.36687 4.67058 7.11813C4.90526 7.86939 5.37036 8.52776 6.00001 9C5.52327 9.35728 5.13852 9.823 4.87762 10.3586C4.61672 10.8942 4.48718 11.4842 4.49973 12.0798C4.51229 12.6755 4.66657 13.2595 4.94981 13.7837C5.23304 14.3078 5.63708 14.7569 6.12844 15.0938C5.56954 15.5187 5.12835 16.0792 4.84663 16.7223C4.56492 17.3654 4.45201 18.0698 4.5186 18.7687C4.58519 19.4676 4.82908 20.138 5.22716 20.7163C5.62525 21.2947 6.16436 21.7618 6.79345 22.0735C7.42254 22.3853 8.12079 22.5313 8.82208 22.4978C9.52337 22.4642 10.2045 22.2522 10.801 21.8819C11.3974 21.5115 11.8895 20.995 12.2306 20.3814C12.5716 19.7677 12.7504 19.0771 12.75 18.375V15C13.144 15.2955 13.5923 15.5105 14.0693 15.6327C14.5464 15.7549 15.0428 15.782 15.5303 15.7123C16.0178 15.6427 16.4869 15.4777 16.9106 15.2268C17.3344 14.9759 17.7045 14.644 18 14.25C18.2955 13.856 18.5105 13.4077 18.6327 12.9307C18.7549 12.4536 18.782 11.9572 18.7123 11.4697C18.6427 10.9822 18.4777 10.5131 18.2268 10.0894C17.9759 9.66565 17.644 9.29547 17.25 9ZM17.25 6C17.25 6.59674 17.013 7.16903 16.591 7.59099C16.169 8.01295 15.5967 8.25 15 8.25H12.75V3.75H15C15.5967 3.75 16.169 3.98705 16.591 4.40901C17.013 4.83097 17.25 5.40326 17.25 6ZM6.00001 6C6.00001 5.40326 6.23706 4.83097 6.65902 4.40901C7.08097 3.98705 7.65327 3.75 8.25001 3.75H11.25V8.25H8.25001C7.65327 8.25 7.08097 8.01295 6.65902 7.59099C6.23706 7.16903 6.00001 6.59674 6.00001 6ZM8.25001 14.25C7.65327 14.25 7.08097 14.0129 6.65902 13.591C6.23706 13.169 6.00001 12.5967 6.00001 12C6.00001 11.4033 6.23706 10.831 6.65902 10.409C7.08097 9.98705 7.65327 9.75 8.25001 9.75H11.25V14.25H8.25001ZM11.25 18.375C11.25 18.8942 11.0961 19.4017 10.8076 19.8334C10.5192 20.2651 10.1092 20.6015 9.62955 20.8002C9.14989 20.9989 8.62209 21.0508 8.11289 20.9496C7.60369 20.8483 7.13596 20.5983 6.76885 20.2312C6.40174 19.864 6.15173 19.3963 6.05045 18.8871C5.94916 18.3779 6.00114 17.8501 6.19982 17.3705C6.3985 16.8908 6.73496 16.4808 7.16663 16.1924C7.59831 15.904 8.10583 15.75 8.62501 15.75H11.25V18.375ZM15 14.25C14.555 14.25 14.12 14.118 13.75 13.8708C13.38 13.6236 13.0916 13.2722 12.9213 12.861C12.751 12.4499 12.7064 11.9975 12.7932 11.561C12.8801 11.1246 13.0943 10.7237 13.409 10.409C13.7237 10.0943 14.1246 9.88005 14.5611 9.79323C14.9975 9.70642 15.4499 9.75097 15.861 9.92127C16.2722 10.0916 16.6236 10.38 16.8708 10.75C17.118 11.12 17.25 11.555 17.25 12C17.25 12.5967 17.013 13.169 16.591 13.591C16.169 14.0129 15.5967 14.25 15 14.25Z" fill="#F0ECDE"/>
</svg>
