<svg width="98" height="77" viewBox="0 0 98 77" fill="none" xmlns="http://www.w3.org/2000/svg">
<style>
    #mancha-naranja{
    animation: fluid  10s linear 2s alternate;
    fill: red;
    }
    @keyframes fluid {
    0%{
        fill: rgb(218, 115, 115);
    }
    100%{
        fill:rgb(147, 188, 24);
    }

    
    }
</style>
<path id="mancha-naranja" d="M27.4715 24.4214C21.2557 19.1099 26.7476 9.08736 34.5694 11.4679L42.0388 13.7412C44.608 14.5231 47.3631 14.4379 49.8791 13.4986L61.5861 9.12795C68.5322 6.53473 74.7555 14.3181 70.6974 20.5234L67.214 25.8499C65.6003 28.3175 65.7821 31.5485 67.6625 33.8194V33.8194C73.4365 40.7929 67.8117 51.2533 58.8103 50.2816L49.8405 49.3134C47.9582 49.1102 46.0558 49.1998 44.2008 49.5789L30.9162 52.2942C23.1573 53.88 18.268 44.2095 24.145 38.9013L27.6273 35.756C31.0057 32.7045 30.9325 27.3788 27.4715 24.4214V24.4214Z"/>
<path id="mancha-azul" d="M41.4715 42.4746C35.2557 37.1631 40.7476 27.1406 48.5694 29.5211L56.0388 31.7944C58.608 32.5763 61.3631 32.4911 63.8791 31.5518L75.5861 27.1812C82.5322 24.588 88.7555 32.3713 84.6974 38.5766L81.214 43.9031C79.6003 46.3707 79.7821 49.6017 81.6625 51.8726V51.8726C87.4365 58.8461 81.8117 69.3065 72.8103 68.3349L63.8405 67.3666C61.9582 67.1634 60.0558 67.253 58.2008 67.6321L44.9162 70.3474C37.1573 71.9332 32.268 62.2627 38.145 56.9545L41.6273 53.8092C45.0057 50.7578 44.9325 45.432 41.4715 42.4746V42.4746Z" fill="#1B274B"/>
</svg>
