<svg width="20" height="24" viewBox="0 0 20 24" fill="none" xmlns="http://www.w3.org/2000/svg">
<g clip-path="url(#clip0_301_1207)">
<path d="M9.6 24C6.82 23.3 4.5248 21.7048 2.7144 19.2144C0.904001 16.724 -0.00079947 13.9592 5.30035e-07 10.92V3.6L9.6 0L19.2 3.6V10.92C19.2 13.96 18.2948 16.7252 16.4844 19.2156C14.674 21.706 12.3792 23.3008 9.6 24ZM9.6 21.48C11.68 20.82 13.4 19.5 14.76 17.52C16.12 15.54 16.8 13.34 16.8 10.92V5.25L9.6 2.55L2.4 5.25V10.92C2.4 13.34 3.08 15.54 4.44 17.52C5.8 19.5 7.52 20.82 9.6 21.48Z" fill="#F0ECDE"/>
</g>
<defs>
<clipPath id="clip0_301_1207">
<rect width="19.2" height="24" fill="white"/>
</clipPath>
</defs>
</svg>
