<svg width="24px" height="24px" viewBox="0 0 24 24" fill="none" xmlns="http://www.w3.org/2000/svg">
<path d="M18.7819 12.0001C18.7819 13.3414 18.3842 14.6526 17.639 15.7679C16.8938 16.8832 15.8346 17.7524 14.5953 18.2657C13.3561 18.779 11.9925 18.9134 10.6769 18.6517C9.36136 18.39 8.15294 17.7441 7.20447 16.7956C6.256 15.8471 5.61009 14.6387 5.3484 13.3232C5.08672 12.0076 5.22103 10.644 5.73433 9.40474C6.24764 8.16551 7.1169 7.10632 8.23218 6.36111C9.34746 5.61591 10.6587 5.21815 12 5.21815C13.7979 5.22079 15.5213 5.93616 16.7926 7.20744C18.0639 8.47873 18.7793 10.2022 18.7819 12.0001ZM12 3.62241C12.2116 3.62241 12.4146 3.53835 12.5642 3.38872C12.7138 3.23909 12.7979 3.03614 12.7979 2.82454V0.829855C12.7979 0.618246 12.7138 0.415304 12.5642 0.265674C12.4146 0.116044 12.2116 0.0319824 12 0.0319824C11.7884 0.0319824 11.5855 0.116044 11.4358 0.265674C11.2862 0.415304 11.2021 0.618246 11.2021 0.829855V2.82454C11.2021 3.03614 11.2862 3.23909 11.4358 3.38872C11.5855 3.53835 11.7884 3.62241 12 3.62241ZM4.94881 6.07587C5.09964 6.22269 5.30182 6.30485 5.51231 6.30485C5.7228 6.30485 5.92498 6.22269 6.0758 6.07587C6.22502 5.92629 6.30881 5.72364 6.30881 5.51237C6.30881 5.30109 6.22502 5.09844 6.0758 4.94887L4.66955 3.53265C4.59802 3.44548 4.50902 3.37426 4.4083 3.32356C4.30757 3.27286 4.19735 3.24381 4.08472 3.23828C3.9721 3.23275 3.85956 3.25086 3.75435 3.29144C3.64914 3.33203 3.5536 3.39419 3.47386 3.47392C3.39413 3.55366 3.33197 3.6492 3.29138 3.75441C3.2508 3.85962 3.23269 3.97216 3.23822 4.08478C3.24375 4.19741 3.2728 4.30763 3.3235 4.40836C3.3742 4.50908 3.44542 4.59808 3.53259 4.66962L4.94881 6.07587ZM3.62235 12.0001C3.62235 11.7885 3.53829 11.5855 3.38866 11.4359C3.23903 11.2863 3.03608 11.2022 2.82447 11.2022H0.829794C0.618185 11.2022 0.415243 11.2863 0.265613 11.4359C0.115983 11.5855 0.0319214 11.7885 0.0319214 12.0001C0.0319214 12.2117 0.115983 12.4146 0.265613 12.5642C0.415243 12.7139 0.618185 12.7979 0.829794 12.7979H2.82447C3.03608 12.7979 3.23903 12.7139 3.38866 12.5642C3.53829 12.4146 3.62235 12.2117 3.62235 12.0001ZM4.94881 17.9243L3.53259 19.3305C3.38276 19.4818 3.29871 19.6861 3.29871 19.899C3.29871 20.1119 3.38276 20.3162 3.53259 20.4675C3.68683 20.6122 3.8896 20.694 4.10107 20.6969C4.31294 20.696 4.5164 20.6139 4.66955 20.4675L6.0758 19.0513C6.21333 18.8995 6.28721 18.7006 6.28217 18.4959C6.27713 18.2911 6.19355 18.0962 6.04872 17.9514C5.9039 17.8065 5.70893 17.7229 5.50418 17.7179C5.29943 17.7129 5.10058 17.7867 4.94881 17.9243ZM12 20.3777C11.7884 20.3777 11.5855 20.4618 11.4358 20.6114C11.2862 20.761 11.2021 20.964 11.2021 21.1756V23.1703C11.2021 23.3819 11.2862 23.5848 11.4358 23.7345C11.5855 23.8841 11.7884 23.9682 12 23.9682C12.2116 23.9682 12.4146 23.8841 12.5642 23.7345C12.7138 23.5848 12.7979 23.3819 12.7979 23.1703V21.1756C12.7979 20.964 12.7138 20.761 12.5642 20.6114C12.4146 20.4618 12.2116 20.3777 12 20.3777ZM19.0512 17.9243C18.8994 17.7867 18.7006 17.7129 18.4958 17.7179C18.2911 17.7229 18.0961 17.8065 17.9513 17.9514C17.8065 18.0962 17.7229 18.2911 17.7178 18.4959C17.7128 18.7006 17.7867 18.8995 17.9242 19.0513L19.3305 20.4675C19.4836 20.6139 19.6871 20.696 19.8989 20.6969C20.1104 20.694 20.3132 20.6122 20.4674 20.4675C20.6173 20.3162 20.7013 20.1119 20.7013 19.899C20.7013 19.6861 20.6173 19.4818 20.4674 19.3305L19.0512 17.9243ZM23.1702 11.2022H21.1755C20.9639 11.2022 20.761 11.2863 20.6114 11.4359C20.4617 11.5855 20.3777 11.7885 20.3777 12.0001C20.3777 12.2117 20.4617 12.4146 20.6114 12.5642C20.761 12.7139 20.9639 12.7979 21.1755 12.7979H23.1702C23.3818 12.7979 23.5848 12.7139 23.7344 12.5642C23.884 12.4146 23.9681 12.2117 23.9681 12.0001C23.9681 11.7885 23.884 11.5855 23.7344 11.4359C23.5848 11.2863 23.3818 11.2022 23.1702 11.2022ZM18.4927 6.30525C18.5964 6.30617 18.6992 6.28635 18.7951 6.24696C18.891 6.20756 18.9781 6.14939 19.0512 6.07587L20.4674 4.66962C20.5947 4.51459 20.6597 4.31779 20.6498 4.11748C20.64 3.91717 20.556 3.72768 20.4142 3.58587C20.2724 3.44406 20.0829 3.36007 19.8826 3.35023C19.6823 3.3404 19.4855 3.40542 19.3305 3.53265L17.9242 4.94887C17.775 5.09844 17.6912 5.30109 17.6912 5.51237C17.6912 5.72364 17.775 5.92629 17.9242 6.07587C17.9985 6.15061 18.0872 6.20949 18.1849 6.24892C18.2826 6.28835 18.3873 6.30752 18.4927 6.30525Z" fill="#F0ECDE"/>
</svg>
