<svg width="24px" height="24px" viewBox="0 0 24 24" fill="none" xmlns="http://www.w3.org/2000/svg">
<path d="M12 10.1101C13.03 10.1101 13.87 10.9501 13.87 12.0001C13.87 13.0001 13.03 13.8501 12 13.8501C10.97 13.8501 10.13 13.0001 10.13 12.0001C10.13 10.9501 10.97 10.1101 12 10.1101ZM7.37 20.0001C8 20.3801 9.38 19.8001 10.97 18.3001C10.45 17.7101 9.94 17.0701 9.46 16.4001C8.65415 16.323 7.85301 16.2028 7.06 16.0401C6.55 18.1801 6.74 19.6501 7.37 20.0001ZM8.08 14.2601L7.79 13.7501C7.68 14.0401 7.57 14.3301 7.5 14.6101C7.77 14.6701 8.07 14.7201 8.38 14.7701L8.08 14.2601ZM14.62 13.5001L15.43 12.0001L14.62 10.5001C14.32 9.97009 14 9.50009 13.71 9.03009C13.17 9.00009 12.6 9.00009 12 9.00009C11.4 9.00009 10.83 9.00009 10.29 9.03009C10 9.50009 9.68 9.97009 9.38 10.5001L8.57 12.0001L9.38 13.5001C9.68 14.0301 10 14.5001 10.29 14.9701C10.83 15.0001 11.4 15.0001 12 15.0001C12.6 15.0001 13.17 15.0001 13.71 14.9701C14 14.5001 14.32 14.0301 14.62 13.5001ZM12 6.78009C11.81 7.00009 11.61 7.23009 11.41 7.50009H12.59C12.39 7.23009 12.19 7.00009 12 6.78009ZM12 17.2201C12.19 17.0001 12.39 16.7701 12.59 16.5001H11.41C11.61 16.7701 11.81 17.0001 12 17.2201ZM16.62 4.00009C16 3.62009 14.62 4.20009 13.03 5.70009C13.55 6.29009 14.06 6.93009 14.54 7.60009C15.36 7.68009 16.17 7.80009 16.94 7.96009C17.45 5.82009 17.26 4.35009 16.62 4.00009ZM15.92 9.74009L16.21 10.2501C16.32 9.96009 16.43 9.67009 16.5 9.39009C16.23 9.33009 15.93 9.28009 15.62 9.23009L15.92 9.74009ZM17.37 2.69009C18.84 3.53009 19 5.74009 18.38 8.32009C20.92 9.07009 22.75 10.3101 22.75 12.0001C22.75 13.6901 20.92 14.9301 18.38 15.6801C19 18.2601 18.84 20.4701 17.37 21.3101C15.91 22.1501 13.92 21.1901 12 19.3601C10.08 21.1901 8.09 22.1501 6.62 21.3101C5.16 20.4701 5 18.2601 5.62 15.6801C3.08 14.9301 1.25 13.6901 1.25 12.0001C1.25 10.3101 3.08 9.07009 5.62 8.32009C5 5.74009 5.16 3.53009 6.62 2.69009C8.09 1.85009 10.08 2.81009 12 4.64009C13.92 2.81009 15.91 1.85009 17.37 2.69009ZM17.08 12.0001C17.42 12.7501 17.72 13.5001 17.97 14.2601C20.07 13.6301 21.25 12.7301 21.25 12.0001C21.25 11.2701 20.07 10.3701 17.97 9.74009C17.72 10.5001 17.42 11.2501 17.08 12.0001ZM6.92 12.0001C6.58 11.2501 6.28 10.5001 6.03 9.74009C3.93 10.3701 2.75 11.2701 2.75 12.0001C2.75 12.7301 3.93 13.6301 6.03 14.2601C6.28 13.5001 6.58 12.7501 6.92 12.0001ZM15.92 14.2601L15.62 14.7701C15.93 14.7201 16.23 14.6701 16.5 14.6101C16.43 14.3301 16.32 14.0401 16.21 13.7501L15.92 14.2601ZM13.03 18.3001C14.62 19.8001 16 20.3801 16.62 20.0001C17.26 19.6501 17.45 18.1801 16.94 16.0401C16.17 16.2001 15.36 16.3201 14.54 16.4001C14.06 17.0701 13.55 17.7101 13.03 18.3001ZM8.08 9.74009L8.38 9.23009C8.07 9.28009 7.77 9.33009 7.5 9.39009C7.57 9.67009 7.68 9.96009 7.79 10.2501L8.08 9.74009ZM10.97 5.70009C9.38 4.20009 8 3.62009 7.37 4.00009C6.74 4.35009 6.55 5.82009 7.06 7.96009C7.85301 7.79738 8.65415 7.67721 9.46 7.60009C9.94 6.93009 10.45 6.29009 10.97 5.70009Z" fill="#1B274B"/>
</svg>
