<svg width="24px" height="24px" viewBox="0 0 24 24" fill="none" xmlns="http://www.w3.org/2000/svg">
<path d="M23.1778 4.38226L12.5111 0.0964776C12.1834 -0.0321592 11.8166 -0.0321592 11.4889 0.0964776L0.822195 4.38226C0.551319 4.49238 0.325333 4.68507 0.17884 4.93083C0.0323467 5.17659 -0.0265802 5.46187 0.0110816 5.743L1.78886 18.6004C1.81719 18.8075 1.89787 19.0048 2.0238 19.1748C2.14974 19.3448 2.31707 19.4824 2.51109 19.5754L11.4 23.8612C11.5858 23.9524 11.7914 24 12 24C12.2086 24 12.4142 23.9524 12.6 23.8612L21.4889 19.5754C21.6829 19.4824 21.8503 19.3448 21.9762 19.1748C22.1021 19.0048 22.1828 18.8075 22.2111 18.6004L23.9889 5.743C24.0266 5.46187 23.9677 5.17659 23.8212 4.93083C23.6747 4.68507 23.4487 4.49238 23.1778 4.38226ZM19.6556 17.5825L12 21.279L4.34443 17.5825L2.78887 6.37516L12 2.67866L21.2111 6.37516L19.6556 17.5825ZM10.8111 6.7073L6.8111 14.4217C6.72186 14.5732 6.66547 14.7405 6.64534 14.9136C6.62521 15.0867 6.64177 15.2619 6.694 15.4287C6.74623 15.5954 6.83306 15.7502 6.9492 15.8836C7.06534 16.017 7.20838 16.1263 7.36964 16.2047C7.5309 16.2832 7.70701 16.3293 7.88729 16.3401C8.06757 16.351 8.24826 16.3264 8.41839 16.2679C8.58852 16.2093 8.74454 16.1181 8.87699 15.9997C9.00944 15.8812 9.11555 15.7381 9.18888 15.5789L9.78888 14.4324H14.2111L14.8111 15.5789C14.8845 15.7381 14.9906 15.8812 15.123 15.9997C15.2555 16.1181 15.4115 16.2093 15.5816 16.2679C15.7517 16.3264 15.9324 16.351 16.1127 16.3401C16.293 16.3293 16.4691 16.2832 16.6304 16.2047C16.7916 16.1263 16.9347 16.017 17.0508 15.8836C17.1669 15.7502 17.2538 15.5954 17.306 15.4287C17.3582 15.2619 17.3748 15.0867 17.3547 14.9136C17.3345 14.7405 17.2781 14.5732 17.1889 14.4217L13.1889 6.7073C13.0774 6.49559 12.9073 6.31777 12.6975 6.19357C12.4876 6.06936 12.2462 6.00361 12 6.00361C11.7538 6.00361 11.5124 6.06936 11.3025 6.19357C11.0927 6.31777 10.9226 6.49559 10.8111 6.7073ZM11.1222 11.861L12 10.1574L12.8778 11.861H11.1222Z" fill="#F0ECDE"/>
</svg>
