<svg width="24px" height="24px" viewBox="0 0 24 24" fill="none" xmlns="http://www.w3.org/2000/svg">
<g clip-path="url(#clip0_301_1197)">
<path d="M10.8 8H13.2V9H10.8V8ZM10.8 4H13.2V5H10.8V4ZM10.8 10H13.2V11H10.8V10Z" fill="#F0ECDE"/>
<path d="M22.8 12V9C19.1417 8.99937 15.5973 10.0601 12.7752 12H11.2248C8.40275 10.0601 4.8583 8.99937 1.2 9V12C0.88174 12 0.576515 12.1054 0.351472 12.2929C0.126428 12.4804 0 12.7348 0 13V15C0 15.2652 0.126428 15.5196 0.351472 15.7071C0.576515 15.8946 0.88174 16 1.2 16V20C5.21048 19.9969 9.07195 21.2662 12 23.55C14.9311 21.2703 18.7906 20.0017 22.8 20V16C23.1183 16 23.4235 15.8946 23.6485 15.7071C23.8736 15.5196 24 15.2652 24 15V13C24 12.7348 23.8736 12.4804 23.6485 12.2929C23.4235 12.1054 23.1183 12 22.8 12Z" fill="#F0ECDE"/>
<path d="M8.40001 5C9.06275 5 9.60001 4.55228 9.60001 4C9.60001 3.44772 9.06275 3 8.40001 3C7.73727 3 7.20001 3.44772 7.20001 4C7.20001 4.55228 7.73727 5 8.40001 5Z" fill="#F0ECDE"/>
<path d="M15.6 5C16.2628 5 16.8 4.55228 16.8 4C16.8 3.44772 16.2628 3 15.6 3C14.9373 3 14.4 3.44772 14.4 4C14.4 4.55228 14.9373 5 15.6 5Z" fill="#F0ECDE"/>
<path d="M16.8 8H7.19998C6.24549 7.99921 5.33037 7.68288 4.65544 7.12044C3.98052 6.55801 3.60093 5.79541 3.59998 5V3C3.60093 2.20459 3.98052 1.44199 4.65544 0.879557C5.33037 0.31712 6.24549 0.000794215 7.19998 0L16.8 0C17.7545 0.000794215 18.6696 0.31712 19.3445 0.879557C20.0194 1.44199 20.399 2.20459 20.4 3V5C20.399 5.79541 20.0194 6.55801 19.3445 7.12044C18.6696 7.68288 17.7545 7.99921 16.8 8ZM7.19998 2C6.88181 2.00026 6.57677 2.10571 6.3518 2.29319C6.12682 2.48066 6.00029 2.73486 5.99998 3V5C6.00029 5.26514 6.12682 5.51934 6.3518 5.70681C6.57677 5.89429 6.88181 5.99974 7.19998 6H16.8C17.1181 5.99974 17.4232 5.89429 17.6482 5.70681C17.8731 5.51934 17.9997 5.26514 18 5V3C17.9997 2.73486 17.8731 2.48066 17.6482 2.29319C17.4232 2.10571 17.1181 2.00026 16.8 2H7.19998Z" fill="#F0ECDE"/>
</g>
<defs>
<clipPath id="clip0_301_1197">
<rect width="24px" height="24px" fill="white"/>
</clipPath>
</defs>
</svg>
