<svg width="24px" height="24px" viewBox="0 0 24 24" fill="none" xmlns="http://www.w3.org/2000/svg">
<path d="M5.86364 6.38008H9.95455V16.9586L7.22728 15.6363M18.1364 6.38008H14.7273C14.5464 6.38008 14.373 6.44973 14.2452 6.57372C14.1173 6.69771 14.0455 6.86588 14.0455 7.04123V11.0082C14.0455 11.1835 14.1173 11.3517 14.2452 11.4757C14.373 11.5997 14.5464 11.6693 14.7273 11.6693H16.6677C16.7653 11.6693 16.8618 11.6897 16.9506 11.7289C17.0394 11.7682 17.1184 11.8255 17.1824 11.897C17.2464 11.9684 17.2938 12.0524 17.3215 12.1431C17.3492 12.2339 17.3564 12.3293 17.3427 12.4231L16.7727 16.2974L14.0455 16.9586M22.9091 1.09082L20.1818 20.2644L12 22.909L3.81818 20.2644L1.09091 1.09082H22.9091Z" stroke="#F0ECDE" stroke-width="2" stroke-linecap="round" stroke-linejoin="round"/>
</svg>
