<svg width="24px" height="24px" viewBox="0 0 24 24" fill="none" xmlns="http://www.w3.org/2000/svg">
<path d="M23.8815 15.0217C23.3131 17.0559 22.222 18.9058 20.7168 20.3874C19.2116 21.869 17.3447 22.9307 15.3018 23.4669C13.2589 24.003 11.1113 23.995 9.07245 23.4435C7.03365 22.8921 5.17476 21.8164 3.68069 20.3236C2.18662 18.8307 1.10946 16.9727 0.55634 14.9343C0.00322244 12.896 -0.00656758 10.7483 0.527944 8.705C1.06245 6.66168 2.12264 4.79392 3.60303 3.28751C5.08343 1.78109 6.93243 0.688532 8.96613 0.118504C9.11513 0.0705259 9.27364 0.0598844 9.42772 0.0875151C9.58179 0.115146 9.72673 0.180203 9.84977 0.276967C9.97282 0.373731 10.0702 0.49924 10.1334 0.642461C10.1966 0.785681 10.2236 0.942229 10.2121 1.09834C10.2118 1.1724 10.1995 1.24592 10.1758 1.31608C9.69589 3.04828 9.68405 4.87679 10.1415 6.61506C10.5989 8.35333 11.5092 9.93916 12.7796 11.2108C14.05 12.4824 15.6349 13.3942 17.3728 13.8533C19.1106 14.3125 20.9391 14.3024 22.6718 13.8241L22.9379 13.7758C23.1484 13.7741 23.3538 13.8403 23.5237 13.9645C23.6937 14.0886 23.8191 14.2642 23.8815 14.4653C23.9423 14.6458 23.9423 14.8412 23.8815 15.0217Z" fill="#F0ECDE"/>
</svg>
