<svg width="24px" height="24px" viewBox="0 0 24 24" fill="none" xmlns="http://www.w3.org/2000/svg">
<path d="M21.6533 0H2.34667C1.72429 0 1.12741 0.247237 0.687323 0.687323C0.247237 1.12741 0 1.72429 0 2.34667V21.6533C0 22.2757 0.247237 22.8726 0.687323 23.3127C1.12741 23.7528 1.72429 24 2.34667 24H21.6533C21.9615 24 22.2667 23.9393 22.5514 23.8214C22.8361 23.7034 23.0948 23.5306 23.3127 23.3127C23.5306 23.0948 23.7034 22.8361 23.8214 22.5514C23.9393 22.2667 24 21.9615 24 21.6533V2.34667C24 2.0385 23.9393 1.73335 23.8214 1.44864C23.7034 1.16393 23.5306 0.905231 23.3127 0.687323C23.0948 0.469414 22.8361 0.29656 22.5514 0.178629C22.2667 0.0606982 21.9615 0 21.6533 0ZM13.92 13.3333H10.92V21.92H8.53333V13.3333H5.53333V11.3867H13.92V13.3333ZM21.6533 20.3733C21.4603 20.7838 21.1493 21.1273 20.76 21.36C20.3504 21.6121 19.8988 21.7882 19.4267 21.88C18.9003 21.9887 18.3641 22.0423 17.8267 22.04C17.2767 22.0395 16.7279 21.9904 16.1867 21.8933C15.7266 21.7991 15.2791 21.6514 14.8533 21.4533V19.1733L14.7733 19.0933H14.8533V19.1867C15.2544 19.4996 15.7051 19.7429 16.1867 19.9067C16.6676 20.0898 17.1788 20.1803 17.6933 20.1733C17.9622 20.178 18.2307 20.1512 18.4933 20.0933C18.6906 20.0472 18.8795 19.9707 19.0533 19.8667C19.1894 19.7837 19.3037 19.6694 19.3867 19.5333C19.4688 19.3784 19.5049 19.2031 19.4907 19.0283C19.4765 18.8535 19.4127 18.6864 19.3067 18.5467C19.1813 18.3709 19.0228 18.2215 18.84 18.1067C18.6181 17.9506 18.3814 17.8166 18.1333 17.7067L17.24 17.3333C16.5328 17.0421 15.9063 16.5847 15.4133 16C15.0008 15.5027 14.7829 14.8726 14.8 14.2267C14.7845 13.736 14.8946 13.2495 15.12 12.8133C15.3351 12.4332 15.6365 12.1089 16 11.8667C16.405 11.5972 16.8574 11.4072 17.3333 11.3067C17.8536 11.1869 18.3861 11.1287 18.92 11.1333C19.4061 11.1265 19.8921 11.1578 20.3733 11.2267C20.7737 11.2893 21.1668 11.392 21.5467 11.5333V13.7333C21.3712 13.6082 21.1836 13.501 20.9867 13.4133C20.7747 13.3221 20.5563 13.2463 20.3333 13.1867C20.1196 13.1241 19.9011 13.0795 19.68 13.0533C19.476 13.0341 19.2707 13.0341 19.0667 13.0533C18.8154 13.0492 18.5646 13.076 18.32 13.1333C18.1193 13.1754 17.9261 13.2473 17.7467 13.3467C17.6067 13.4292 17.4879 13.5433 17.4 13.68C17.3202 13.8128 17.2787 13.9651 17.28 14.12C17.2768 14.2854 17.3232 14.448 17.4133 14.5867C17.5229 14.7381 17.6583 14.869 17.8133 14.9733C18.0013 15.123 18.2074 15.2484 18.4267 15.3467L19.2667 15.72C19.6529 15.8797 20.0272 16.0668 20.3867 16.28C20.7028 16.453 20.9905 16.6733 21.24 16.9333C21.4844 17.1702 21.6754 17.4566 21.8 17.7733C21.9279 18.1373 21.991 18.5209 21.9867 18.9067C21.9771 19.4047 21.8636 19.8951 21.6533 20.3467V20.3733Z" fill="#F0ECDE"/>
</svg>
