<svg width="25" height="19" viewBox="0 0 25 19" fill="none" xmlns="http://www.w3.org/2000/svg">
<path d="M11.3196 13.6093C11.2971 13.6498 11.3083 13.6318 11.3196 13.6093ZM20.6616 10.3468C19.9071 10.3468 19.1631 10.5193 18.4866 10.8531C18.2653 10.4068 18.0366 10.0168 17.9991 9.72434C17.9541 9.38309 17.9053 9.18059 17.9578 8.77559C18.0103 8.37059 18.2466 7.79684 18.2428 7.75559C18.2391 7.71434 18.1903 7.50809 17.7066 7.50434C17.2228 7.50059 16.8066 7.59809 16.7578 7.72559C16.6722 7.95854 16.6058 8.19809 16.5591 8.44184C16.4728 8.88059 15.5923 10.4481 15.0936 11.2656C14.9286 10.9468 14.7898 10.6656 14.7598 10.4406C14.7148 10.0993 14.6661 9.89684 14.7186 9.49184C14.7711 9.08684 15.0073 8.51309 15.0036 8.47184C14.9998 8.43059 14.9511 8.22434 14.4681 8.22059C13.9851 8.21684 13.5681 8.31434 13.5193 8.44184C13.4706 8.56934 13.4181 8.86934 13.3206 9.15809C13.2231 9.44684 12.0493 12.0568 11.7426 12.7356C11.5851 13.0806 11.4501 13.3581 11.3526 13.5456C11.3376 13.5756 11.3263 13.5943 11.3188 13.6093C11.3301 13.5906 11.3376 13.5718 11.3376 13.5793C11.2551 13.7406 11.2063 13.8306 11.2063 13.8306V13.8343C11.1426 13.9543 11.0713 14.0631 11.0376 14.0631C11.0151 14.0631 10.9663 13.7481 11.0488 13.3168C11.2251 12.4093 11.6413 10.9993 11.6376 10.9506C11.6338 10.9243 11.7163 10.6806 11.3638 10.5493C11.0226 10.4256 10.8988 10.6318 10.8688 10.6318C10.8388 10.6318 10.8163 10.7068 10.8163 10.7068C10.8163 10.7068 11.1951 9.11684 10.0888 9.11684C9.39884 9.11684 8.43884 9.87434 7.96709 10.5606C7.67084 10.7218 7.02959 11.0706 6.35459 11.4418L5.57834 11.8693C5.55959 11.8506 5.54459 11.8318 5.52584 11.8131C4.18334 10.3806 1.70534 9.36809 1.81034 7.44434C1.84784 6.74309 2.09159 4.90184 6.57584 2.66684C10.2508 0.836841 13.1886 1.33934 13.6948 2.45684C14.4223 4.05059 12.1236 7.01684 8.30759 7.44434C6.85259 7.60559 6.08834 7.04309 5.89709 6.83309C5.69834 6.61184 5.66834 6.60059 5.59334 6.64184C5.46959 6.70934 5.54834 6.90434 5.59334 7.02059C5.70584 7.31684 6.17459 7.84184 6.97334 8.10434C7.67459 8.33309 9.38009 8.46059 11.4418 7.66184C13.7586 6.76934 15.5623 4.28309 15.0328 2.20184C14.4943 0.0868408 10.9873 -0.606909 7.67159 0.570591C5.69534 1.27184 3.55859 2.37434 2.02184 3.81059C0.195592 5.52059 -0.0961576 7.00934 0.0238424 7.63184C0.451342 9.84059 3.49559 11.2806 4.71359 12.3456L4.54484 12.4393C3.93359 12.7431 1.61309 13.9581 1.03184 15.2406C0.375592 16.6956 1.14059 17.7381 1.64234 17.8806C3.20984 18.3156 4.81409 17.5318 5.67659 16.2456C6.53909 14.9593 6.43409 13.2793 6.03659 12.5143C6.03284 12.5031 6.02534 12.4956 6.02159 12.4843C6.47157 12.2178 6.92537 11.9578 7.38284 11.7043C7.23284 12.1093 7.12409 12.5968 7.06784 13.3018C7.00034 14.1268 7.34159 15.1956 7.78409 15.6156C7.97909 15.7993 8.21459 15.8031 8.36159 15.8031C8.87909 15.8031 9.11159 15.3756 9.37034 14.8656C9.68909 14.2431 9.97034 13.5193 9.97034 13.5193C9.97034 13.5193 9.61784 15.4768 10.5816 15.4768C10.9341 15.4768 11.2866 15.0231 11.4441 14.7906V14.7943C11.4441 14.7943 11.4516 14.7793 11.4703 14.7493C11.5078 14.6931 11.5266 14.6593 11.5266 14.6593V14.6481C11.6691 14.4043 11.9803 13.8456 12.4491 12.9231C13.0566 11.7306 13.6371 10.2418 13.6371 10.2418C13.6933 10.5688 13.7713 10.8921 13.8696 11.2093C13.9746 11.5656 14.1958 11.9556 14.3721 12.3343C14.2296 12.5293 14.1433 12.6418 14.1433 12.6418C14.1433 12.6448 14.1448 12.6471 14.1471 12.6493C14.0346 12.7993 13.9071 12.9606 13.7758 13.1181C13.2966 13.6881 12.7258 14.3406 12.6508 14.5281C12.5608 14.7493 12.5833 14.9143 12.7558 15.0418C12.8833 15.1393 13.1083 15.1543 13.3446 15.1356C13.7758 15.1056 14.0796 15.0006 14.2258 14.9331C14.4956 14.8364 14.7505 14.7027 14.9833 14.5356C15.4521 14.1906 15.7371 13.6956 15.7108 13.0431C15.6958 12.6831 15.5796 12.3231 15.4371 11.9856C15.4783 11.9256 15.5233 11.8618 15.5646 11.7981C16.0526 11.0699 16.4923 10.3106 16.8808 9.52484C16.9371 9.85184 17.0143 10.1751 17.1133 10.4923C17.2033 10.7961 17.3796 11.1298 17.5408 11.4561C16.8433 12.0223 16.4121 12.6786 16.2628 13.1098C15.9853 13.9086 16.2028 14.2686 16.6116 14.3511C16.7953 14.3886 17.0578 14.3023 17.2528 14.2198C17.5423 14.1231 17.8153 13.9828 18.0621 13.8036C18.5308 13.4586 18.9846 12.9748 18.9538 12.3186C18.9426 12.0223 18.8601 11.7261 18.7513 11.4411C19.3401 11.1936 20.1051 11.0586 21.0801 11.1711C23.1681 11.4148 23.5768 12.7198 23.4981 13.2636C23.4193 13.8073 22.9806 14.1111 22.8343 14.2011C22.6881 14.2911 22.6431 14.3248 22.6543 14.3923C22.6731 14.4898 22.7406 14.4861 22.8643 14.4636C23.0368 14.4336 23.9593 14.0211 24.0006 13.0123C24.0606 11.7373 22.8343 10.3348 20.6631 10.3461L20.6616 10.3468ZM4.56734 15.7731C3.87734 16.5268 2.91059 16.8118 2.49434 16.5718C2.04809 16.3123 2.22434 15.2031 3.07484 14.3998C3.59234 13.9123 4.25984 13.4623 4.70234 13.1848C4.80359 13.1248 4.94984 13.0348 5.12984 12.9261C5.14447 12.9167 5.15948 12.908 5.17484 12.8998C5.20859 12.8773 5.24609 12.8586 5.28359 12.8361C5.59409 13.9761 5.29484 14.9818 4.56734 15.7731ZM9.60584 12.3456C9.36584 12.9343 8.86034 14.4343 8.55209 14.3556C8.28959 14.2881 8.12834 13.1443 8.49959 12.0193C8.68709 11.4531 9.08459 10.7781 9.32084 10.5156C9.69959 10.0918 10.1158 9.95684 10.2133 10.1256C10.3446 10.3468 9.75584 11.9781 9.60584 12.3456ZM13.7683 14.3331C13.6671 14.3856 13.5733 14.4193 13.5283 14.3931C13.4946 14.3743 13.5696 14.3031 13.5696 14.3031C13.5696 14.3031 14.0908 13.7443 14.2971 13.4893C14.4171 13.3393 14.5558 13.1631 14.7058 12.9681C14.7058 12.9868 14.7096 13.0056 14.7096 13.0281C14.7051 13.6993 14.0608 14.1531 13.7683 14.3331ZM16.9783 13.6018C16.9033 13.5493 16.9146 13.3731 17.1658 12.8256C17.2633 12.6118 17.4883 12.2518 17.8783 11.9068C17.9226 12.0373 17.9466 12.1738 17.9496 12.3118C17.9458 13.1556 17.3421 13.4706 16.9783 13.6018Z" fill="#F0ECDE"/>
</svg>
